<svg aria-hidden="true" style="position: absolute; width: 0; height: 0; overflow: hidden;" version="1.1" xmlns="http://www.w3.org/2000/svg" xmlns:xlink="http://www.w3.org/1999/xlink">
<defs>
<symbol id="icon-star" viewBox="0 0 34 32">
<path d="M18.134 0.86l3.98 8.062c0.224 0.456 0.66 0.772 1.16 0.844l8.9 1.294c0.751 0.114 1.319 0.754 1.319 1.528 0 0.433-0.178 0.824-0.465 1.104l-6.44 6.276c-0.288 0.281-0.466 0.673-0.466 1.106 0 0.092 0.008 0.182 0.023 0.269l-0.001-0.009 1.52 8.862c0.014 0.078 0.022 0.168 0.022 0.259 0 0.853-0.691 1.544-1.544 1.544-0.263 0-0.51-0.066-0.726-0.181l0.008 0.004-7.96-4.184c-0.208-0.111-0.455-0.177-0.718-0.177s-0.51 0.065-0.726 0.181l0.008-0.004-7.96 4.184c-0.208 0.111-0.454 0.176-0.716 0.176-0.853 0-1.544-0.691-1.544-1.544 0-0.091 0.008-0.18 0.023-0.267l-0.001 0.009 1.52-8.862c0.014-0.079 0.022-0.169 0.022-0.262 0-0.433-0.179-0.824-0.466-1.104l-0-0-6.44-6.276c-0.287-0.281-0.465-0.672-0.465-1.104 0-0.774 0.57-1.415 1.312-1.527l0.008-0.001 8.898-1.294c0.512-0.077 0.935-0.396 1.156-0.835l0.004-0.009 3.98-8.062c0.259-0.514 0.783-0.861 1.387-0.861s1.128 0.346 1.383 0.852l0.004 0.009z"></path>
</symbol>
</defs>
</svg>
